<svg width="8" height="12" fill="none" xmlns="http://www.w3.org/2000/svg"><path d="M3.14 7.365c0-.308.046-.579.14-.812.102-.243.228-.457.377-.644.15-.187.308-.355.476-.504.178-.159.34-.308.49-.448.15-.15.27-.299.364-.448a.847.847 0 00.154-.49c0-.28-.116-.5-.35-.658-.224-.159-.518-.238-.882-.238-.373 0-.714.089-1.022.266a2.057 2.057 0 00-.728.742L.073 3.011c.364-.625.892-1.125 1.582-1.498.69-.383 1.55-.574 2.576-.574.719 0 1.354.103 1.904.308.56.196.999.49 1.316.882.318.392.476.873.476 1.442 0 .364-.056.681-.168.952-.112.27-.256.509-.434.714-.168.205-.35.397-.546.574a36.32 36.32 0 00-.56.49 2.863 2.863 0 00-.42.49c-.112.168-.168.36-.168.574H3.14zm1.245 3.696c-.457 0-.835-.145-1.134-.434a1.393 1.393 0 01-.448-1.036c0-.41.15-.751.448-1.022.299-.28.677-.42 1.134-.42.476 0 .859.14 1.148.42.299.27.448.611.448 1.022 0 .401-.15.747-.448 1.036-.29.29-.672.434-1.148.434z" fill="#fff"/></svg>