<svg width="25" height="24" fill="none" xmlns="http://www.w3.org/2000/svg"><path d="M3.173 10.832a9.592 9.592 0 012.185-5.04 1.5 1.5 0 012.216-.103l2.594 2.65a1.488 1.488 0 01.158 1.92c-.156.22-.273.466-.347.726a.375.375 0 01-.358.265H3.546a.376.376 0 01-.373-.418zm10.56-8.576a1.5 1.5 0 00-1.63 1.494v3.813a1.487 1.487 0 001.242 1.477 3 3 0 01.507 5.79.381.381 0 00-.25.357v6.116a.375.375 0 00.419.375 9.782 9.782 0 008.582-9.54c.07-5.089-3.826-9.43-8.87-9.882zm-1.888 12.572a3.001 3.001 0 01-1.819-1.821.38.38 0 00-.356-.257H3.545a.374.374 0 00-.375.417 9.76 9.76 0 008.514 8.514.375.375 0 00.418-.375v-6.119a.38.38 0 00-.257-.36z" fill="#004D7B"/></svg>