<?xml version="1.0" encoding="utf-8"?><svg xmlns="http://www.w3.org/2000/svg" xmlns:xlink="http://www.w3.org/1999/xlink"><symbol viewBox="0 0 20 21" id="admin" xmlns="http://www.w3.org/2000/svg"><path d="M11.875 8.938h2.5m-2.5 3.125h2.5m-7.023-.782a1.719 1.719 0 1 0 0-3.437 1.719 1.719 0 0 0 0 3.437Zm-1.719 2.032a1.719 1.719 0 0 1 3.437 0"/><path d="M16.875 4.25H3.125a.625.625 0 0 0-.625.625v11.25c0 .345.28.625.625.625h13.75c.345 0 .625-.28.625-.625V4.875a.625.625 0 0 0-.625-.625Z"/></symbol><symbol viewBox="0 0 20 20" id="archive" xmlns="http://www.w3.org/2000/svg"><path d="M16.875 3.75H3.125a.625.625 0 0 0-.625.625v2.5c0 .345.28.625.625.625h13.75c.345 0 .625-.28.625-.625v-2.5a.625.625 0 0 0-.625-.625ZM16.25 7.5v8.125a.624.624 0 0 1-.625.625H4.375a.625.625 0 0 1-.625-.625V7.5m4.375 3.125h3.75"/></symbol><symbol viewBox="0 0 20 20" id="bank" xmlns="http://www.w3.org/2000/svg"><path d="M2.5 7.5h15l-7.5-5-7.5 5Zm1.875 0v6.25m3.75-6.25v6.25m3.75-6.25v6.25m3.75-6.25v6.25m-13.125 0h15m-16.25 2.5h17.5"/></symbol><symbol viewBox="0 0 16 16" id="bell" xmlns="http://www.w3.org/2000/svg"><path d="M6 14.25h4M3.513 6.5A4.494 4.494 0 0 1 8.034 2c2.475.018 4.454 2.075 4.454 4.556v.194c0 2.238.468 3.537.88 4.247a.5.5 0 0 1-.43.753H3.061a.501.501 0 0 1-.43-.753c.413-.71.882-2.009.882-4.247V6.5Z"/></symbol><symbol viewBox="0 0 24 24" id="book" xmlns="http://www.w3.org/2000/svg"><path d="M20.25 3v15a.75.75 0 0 1-.75.75H6.75a1.5 1.5 0 0 0-1.5 1.5H18a.75.75 0 1 1 0 1.5H4.5a.75.75 0 0 1-.75-.75V5.25a3 3 0 0 1 3-3H19.5a.75.75 0 0 1 .75.75Z"/></symbol><symbol viewBox="0 0 20 20" id="book-bookmark" xmlns="http://www.w3.org/2000/svg"><path d="M3.75 17.5a1.875 1.875 0 0 1 1.875-1.875H16.25V2.5H5.625A1.875 1.875 0 0 0 3.75 4.375V17.5Zm0 0v.625H15"/><path d="M13.75 2.5V10l-2.5-1.875L8.75 10V2.5"/></symbol><symbol viewBox="0 0 20 20" id="book-open" xmlns="http://www.w3.org/2000/svg"><path d="M10 6.875a2.5 2.5 0 0 1 2.5-2.5h5a.625.625 0 0 1 .625.625v10a.624.624 0 0 1-.625.625h-5a2.5 2.5 0 0 0-2.5 2.5M1.875 15a.625.625 0 0 0 .625.625h5a2.5 2.5 0 0 1 2.5 2.5V6.875a2.5 2.5 0 0 0-2.5-2.5h-5A.625.625 0 0 0 1.875 5v10Z"/></symbol><symbol viewBox="0 0 20 20" id="calc" xmlns="http://www.w3.org/2000/svg"><path d="M3.125 14.375h5m-2.5-2.5v5m2.5-11.25h-5m13.75 7.505h-5m5 2.49h-5M16.25 3.75 12.5 7.5m3.75 0L12.5 3.75"/></symbol><symbol viewBox="0 0 20 20" id="caret-circle-right" xmlns="http://www.w3.org/2000/svg"><path d="M10 17.5a7.5 7.5 0 1 0 0-15 7.5 7.5 0 0 0 0 15Z"/><path d="M9.063 7.188 12.187 10l-3.124 2.813"/></symbol><symbol viewBox="0 0 24 24" id="check-circle" xmlns="http://www.w3.org/2000/svg"><path d="m16.125 9.75-5.5 5.25-2.75-2.625"/><path d="M12 21a9 9 0 1 0 0-18 9 9 0 0 0 0 18Z"/></symbol><symbol viewBox="0 0 24 24" id="check-fill" xmlns="http://www.w3.org/2000/svg"><path fill-rule="evenodd" clip-rule="evenodd" d="M4 18.751c0 .553.448.999 1 .999h14a.75.75 0 0 0 .75-.75V4.75A.75.75 0 0 0 19 4H4.75a.75.75 0 0 0-.75.75v14.001Zm13.405-9.346a.75.75 0 0 0-1.06-1.06l-5.47 5.47-2.47-2.47a.75.75 0 0 0-1.06 1.06l3 3a.75.75 0 0 0 1.06 0l6-6Z"/></symbol><symbol viewBox="0 0 20 20" id="check-square" xmlns="http://www.w3.org/2000/svg"><path d="M3.437 11.193v-7.13a.625.625 0 0 1 .625-.625h11.875a.625.625 0 0 1 .625.624v11.875a.625.625 0 0 1-.625.626h-5.34"/><path d="m10 11.875-5 5-2.5-2.5"/></symbol><symbol viewBox="0 0 11 7" id="chevron-down" xmlns="http://www.w3.org/2000/svg"><path d="m1 1 4.5 5L10 1"/></symbol><symbol viewBox="0 0 30 31" id="chevron-right-small" xmlns="http://www.w3.org/2000/svg"><path fill-rule="evenodd" clip-rule="evenodd" d="M17.7 9.86a1.125 1.125 0 0 0-1.59-.06l-5.25 4.876a1.125 1.125 0 0 0 0 1.648l5.25 4.875a1.125 1.125 0 1 0 1.53-1.648L13.278 15.5l4.362-4.05a1.125 1.125 0 0 0 .06-1.59Z"/></symbol><symbol viewBox="0 0 20 20" id="clipboard" xmlns="http://www.w3.org/2000/svg"><path d="M13.125 1.875h-6.25V5h6.25V1.875Z"/><path d="M13.125 3.125h2.5a.625.625 0 0 1 .625.625v13.125a.624.624 0 0 1-.625.625H4.375a.625.625 0 0 1-.625-.625V3.75a.625.625 0 0 1 .625-.625h2.5"/></symbol><symbol viewBox="0 0 20 20" id="code" xmlns="http://www.w3.org/2000/svg"><path d="M5 6.875 1.25 10 5 13.125m10-6.25L18.75 10 15 13.125m-2.5-10-5 13.75"/></symbol><symbol viewBox="0 0 20 20" id="copy" xmlns="http://www.w3.org/2000/svg"><g stroke-width="2" stroke-linecap="round" stroke-linejoin="round"><path d="M13.125 13.124h3.75v-10h-10v3.75"/><path d="M13.125 6.875h-10v10h10v-10Z"/></g></symbol><symbol viewBox="0 0 20 20" id="credit-card" xmlns="http://www.w3.org/2000/svg"><path d="M17.5 4.375h-15A.625.625 0 0 0 1.875 5v10c0 .345.28.625.625.625h15c.345 0 .625-.28.625-.625V5a.625.625 0 0 0-.625-.625Zm-4.376 8.75h2.5m-6.249 0h1.25m-8.75-5.558h16.25"/></symbol><symbol viewBox="0 0 14 14" id="download" xmlns="http://www.w3.org/2000/svg"><path d="M7 1.313v8.75M3.063 6.125 7 10.063l3.938-3.938m-8.313 5.688h8.75" stroke-width="2" stroke-linecap="round" stroke-linejoin="round"/></symbol><symbol viewBox="0 0 20 21" id="exit" xmlns="http://www.w3.org/2000/svg"><path d="m13.596 7.219 3.281 3.281-3.28 3.281M8.125 10.5h8.75m-7.5 6.875H3.75a.625.625 0 0 1-.625-.625V4.25a.625.625 0 0 1 .625-.625h5.625"/></symbol><symbol viewBox="0 0 20 20" id="file" xmlns="http://www.w3.org/2000/svg"><path d="M15.625 17.5H4.375a.625.625 0 0 1-.626-.625V3.125a.625.625 0 0 1 .625-.625h7.501l4.375 4.375v10a.625.625 0 0 1-.625.625Z"/><path d="M11.875 2.5v4.375h4.376"/></symbol><symbol viewBox="0 0 20 20" id="folder" xmlns="http://www.w3.org/2000/svg"><path d="M17.5 6.875v8.82a.556.556 0 0 1-.556.555H3.125a.625.625 0 0 1-.625-.625V5a.625.625 0 0 1 .625-.625h4.167c.135 0 .266.044.375.125l2.166 1.625c.109.081.24.125.375.125h6.667a.625.625 0 0 1 .625.625Z"/></symbol><symbol viewBox="0 0 20 20" id="git-branch" xmlns="http://www.w3.org/2000/svg"><path d="M5.313 12.5v-.625A1.875 1.875 0 0 1 7.187 10h5.625a1.875 1.875 0 0 0 1.876-1.875V7.5m-9.375 0v5m0 4.375a2.188 2.188 0 1 0 0-4.375 2.188 2.188 0 0 0 0 4.375Z"/><path d="M14.688 7.5a2.188 2.188 0 1 0 0-4.375 2.188 2.188 0 0 0 0 4.375Zm-9.375 0a2.188 2.188 0 1 0 0-4.375 2.188 2.188 0 0 0 0 4.375Z"/></symbol><symbol viewBox="0 0 16 16" id="house" xmlns="http://www.w3.org/2000/svg"><path d="M9.5 13v-3a.5.5 0 0 0-.5-.5H7a.5.5 0 0 0-.5.5v3a.5.5 0 0 1-.5.5H3a.499.499 0 0 1-.5-.5V7.221a.5.5 0 0 1 .164-.37l5-4.546a.5.5 0 0 1 .672 0l5 4.546a.5.5 0 0 1 .164.37V13a.499.499 0 0 1-.5.5h-3a.5.5 0 0 1-.5-.5Z"/></symbol><symbol viewBox="0 0 32 32" id="icon-arrow-top" xmlns="http://www.w3.org/2000/svg"><path d="M16 27V5m-9 9 9-9 9 9"/></symbol><symbol viewBox="0 0 25 24" id="icon-calc" xmlns="http://www.w3.org/2000/svg"><path d="M19.25 2.25H5.75a1.5 1.5 0 0 0-1.5 1.5v16.5a1.5 1.5 0 0 0 1.5 1.5h13.5a1.5 1.5 0 0 0 1.5-1.5V3.75a1.5 1.5 0 0 0-1.5-1.5Zm-10.5 16.5a1.125 1.125 0 1 1 0-2.25 1.125 1.125 0 0 1 0 2.25Zm0-3.75a1.125 1.125 0 1 1 0-2.25 1.125 1.125 0 0 1 0 2.25Zm3.75 3.75a1.125 1.125 0 1 1 0-2.25 1.125 1.125 0 0 1 0 2.25Zm0-3.75a1.125 1.125 0 1 1 0-2.25 1.125 1.125 0 0 1 0 2.25Zm3.75 3.75a1.125 1.125 0 1 1 0-2.25 1.125 1.125 0 0 1 0 2.25Zm0-3.75a1.125 1.125 0 1 1 0-2.25 1.125 1.125 0 0 1 0 2.25Zm1.5-5.25a.75.75 0 0 1-.75.75H8a.75.75 0 0 1-.75-.75V6A.75.75 0 0 1 8 5.25h9a.75.75 0 0 1 .75.75v3.75Z"/></symbol><symbol viewBox="0 0 25 24" id="icon-data" xmlns="http://www.w3.org/2000/svg"><path d="M17.256 6.75h-13.5a1.5 1.5 0 0 0-1.5 1.5v10.5a1.5 1.5 0 0 0 1.5 1.5h13.5a1.5 1.5 0 0 0 1.5-1.5V8.25a1.5 1.5 0 0 0-1.5-1.5Z"/><path d="M20.256 3.75H6.006a.75.75 0 0 0 0 1.5h14.25V16.5a.75.75 0 0 0 1.5 0V5.25a1.501 1.501 0 0 0-1.5-1.5Z"/></symbol><symbol viewBox="0 0 25 24" id="icon-globus" xmlns="http://www.w3.org/2000/svg"><path d="M21.674 15.3a9.75 9.75 0 0 0 0-6.6 9.766 9.766 0 0 0-9.17-6.45l-.004-.003-.004.003a9.767 9.767 0 0 0-9.205 6.547 9.75 9.75 0 0 0 .033 6.5 9.767 9.767 0 0 0 9.172 6.453l.004.003.004-.003a9.766 9.766 0 0 0 9.17-6.45ZM12.5 4.272a10.35 10.35 0 0 1 2.393 3.979h-4.786a10.35 10.35 0 0 1 2.393-3.98ZM10.107 15.75h4.786a10.35 10.35 0 0 1-2.393 3.979 10.35 10.35 0 0 1-2.393-3.979Zm-.392-1.5a11.9 11.9 0 0 1 0-4.5h5.57a11.904 11.904 0 0 1 0 4.5h-5.57Zm7.1-4.5h3.623a8.27 8.27 0 0 1 0 4.5h-3.623a13.79 13.79 0 0 0 0-4.5Zm3.032-1.5h-3.371a11.947 11.947 0 0 0-2.263-4.32 8.28 8.28 0 0 1 5.634 4.32Zm-5.634 11.82a11.948 11.948 0 0 0 2.263-4.32h3.371a8.28 8.28 0 0 1-5.634 4.32Z"/></symbol><symbol viewBox="0 0 25 24" id="icon-star" xmlns="http://www.w3.org/2000/svg"><path d="m12.506 3 2.27 5.876 6.29.343-4.888 3.974 1.618 6.088-5.29-3.42-5.29 3.42 1.618-6.088L3.946 9.22l6.29-.343L12.506 3Z"/></symbol><symbol viewBox="0 0 24 24" id="icon-tree" xmlns="http://www.w3.org/2000/svg"><path d="M14.25 9V7.5h-.75A1.5 1.5 0 0 0 12 9v6a1.5 1.5 0 0 0 1.5 1.5h.75V15a1.5 1.5 0 0 1 1.5-1.5h4.5a1.5 1.5 0 0 1 1.5 1.5v4.5a1.5 1.5 0 0 1-1.5 1.5h-4.5a1.5 1.5 0 0 1-1.5-1.5V18h-.75a3 3 0 0 1-3-3v-2.25h-3v.75A1.5 1.5 0 0 1 6 15H3a1.5 1.5 0 0 1-1.5-1.5v-3A1.5 1.5 0 0 1 3 9h3a1.5 1.5 0 0 1 1.5 1.5v.75h3V9a3 3 0 0 1 3-3h.75V4.5a1.5 1.5 0 0 1 1.5-1.5h4.5a1.5 1.5 0 0 1 1.5 1.5V9a1.5 1.5 0 0 1-1.5 1.5h-4.5a1.5 1.5 0 0 1-1.5-1.5Z"/></symbol><symbol viewBox="0 0 50 50" id="logo" xmlns="http://www.w3.org/2000/svg"><path d="M43.75 33.333V16.667a4.167 4.167 0 0 0-2.083-3.605L27.083 4.73a4.166 4.166 0 0 0-4.166 0L8.333 13.063a4.166 4.166 0 0 0-2.083 3.604v16.666a4.167 4.167 0 0 0 2.083 3.605l14.584 8.333a4.167 4.167 0 0 0 4.166 0l14.584-8.334a4.167 4.167 0 0 0 2.083-3.604Z"/><path d="M15.625 8.77 25 14.189l9.375-5.417M15.625 41.23V30.416L6.25 25m37.5 0-9.375 5.417v10.812M6.813 14.5 25 25.02 43.188 14.5M25 46V25"/></symbol><symbol viewBox="0 0 25 24" id="money" xmlns="http://www.w3.org/2000/svg"><path d="M16.256 12a3.75 3.75 0 1 1-7.5 0 3.75 3.75 0 0 1 7.5 0Zm7.5-6v12a.75.75 0 0 1-.75.75h-21a.75.75 0 0 1-.75-.75V6a.75.75 0 0 1 .75-.75h21a.75.75 0 0 1 .75.75Zm-1.5 4.345A5.323 5.323 0 0 1 18.66 6.75H6.35a5.323 5.323 0 0 1-3.594 3.595v3.31A5.324 5.324 0 0 1 6.35 17.25h12.31a5.324 5.324 0 0 1 3.595-3.595v-3.31Z"/></symbol><symbol viewBox="0 0 20 20" id="newspaper" xmlns="http://www.w3.org/2000/svg"><path d="M6.875 7.5H15M6.875 10H15m-8.125 2.5H15M2.5 16.25A1.25 1.25 0 0 0 3.75 15V4.375a.625.625 0 0 1 .625-.625H17.5a.625.625 0 0 1 .625.625V15a1.25 1.25 0 0 1-1.25 1.25H2.5Zm0 0A1.25 1.25 0 0 1 1.25 15V6.25"/></symbol><symbol viewBox="0 0 32 32" id="paper-plane" xmlns="http://www.w3.org/2000/svg"><path fill-rule="evenodd" clip-rule="evenodd" d="m5.489 3.127 21.114 11.825a1 1 0 0 1 0 1.745L5.489 28.52a1 1 0 0 1-1.43-1.21l3.765-10.545a.998.998 0 0 0 .336.058h8a1 1 0 0 0 0-2h-8c-.118 0-.23.02-.336.058L4.058 4.336a1 1 0 0 1 1.43-1.209Z"/></symbol><symbol viewBox="0 0 20 20" id="pazzle" xmlns="http://www.w3.org/2000/svg"><path d="M5 16.875a.623.623 0 0 1-.625-.625v-3.335a2.189 2.189 0 1 1 0-3.954V5.625A.625.625 0 0 1 5 5h3.648a2.187 2.187 0 1 1 3.954 0h3.648a.625.625 0 0 1 .625.625v3.336a2.188 2.188 0 1 0 0 3.954v3.335a.625.625 0 0 1-.625.625H5Z"/></symbol><symbol viewBox="0 0 24 24" id="plus" xmlns="http://www.w3.org/2000/svg"><path d="M13.25 11.25v-7s0-1.25-1-1.25-1 1.25-1 1.25v7h-7s-1.25 0-1.25 1 1.25 1 1.25 1h7v7s0 1.25 1 1.25 1-1.25 1-1.25v-7h7s1.25 0 1.25-1-1.25-1-1.25-1h-7Z"/></symbol><symbol viewBox="0 0 16 16" id="search" xmlns="http://www.w3.org/2000/svg"><path d="M7.25 12.5a5.25 5.25 0 1 0 0-10.5 5.25 5.25 0 0 0 0 10.5Zm3.712-1.537L13.999 14"/></symbol><symbol viewBox="0 0 20 20" id="shuffle-angular" xmlns="http://www.w3.org/2000/svg"><path d="M2.5 5.625h4.053a.625.625 0 0 1 .509.262l5.876 8.226a.625.625 0 0 0 .509.262h4.678M16.25 3.75l1.875 1.875L16.25 7.5"/><path d="m16.25 12.5 1.875 1.875-1.875 1.875m-4.714-8.4 1.402-1.963a.624.624 0 0 1 .509-.262h4.678M2.5 14.375h4.053a.625.625 0 0 0 .509-.262l1.402-1.962"/></symbol><symbol viewBox="0 0 20 20" id="star" xmlns="http://www.w3.org/2000/svg"><path d="m10 2.5 1.891 4.897 5.242.285-4.073 3.312 1.348 5.074L10 13.218l-4.408 2.85 1.348-5.074-4.073-3.312 5.242-.285L10 2.5Z"/></symbol><symbol viewBox="0 0 12 15" id="trash" xmlns="http://www.w3.org/2000/svg"><path d="M11 4H1m9 1-.444 8.55c0 .12-.042.234-.116.318a.372.372 0 0 1-.28.132H2.84a.372.372 0 0 1-.28-.132.484.484 0 0 1-.116-.318L2 5m6-2V2c0-.265-.084-.52-.234-.707A.729.729 0 0 0 7.2 1H4.8a.729.729 0 0 0-.566.293A1.14 1.14 0 0 0 4 2v1"/></symbol><symbol viewBox="0 0 16 16" id="user" xmlns="http://www.w3.org/2000/svg"><path d="M8 10a4 4 0 1 0 0-8 4 4 0 0 0 0 8Z"/><path d="M1.937 13.5a7.003 7.003 0 0 1 12.126 0"/></symbol><symbol viewBox="0 0 20 20" id="users" xmlns="http://www.w3.org/2000/svg"><path d="M6.875 12.5a4.062 4.062 0 1 0 0-8.125 4.062 4.062 0 0 0 0 8.125Zm5.267-7.974a4.063 4.063 0 1 1 1.102 7.974"/><path d="M1.25 15.422a6.876 6.876 0 0 1 11.25 0m.744-2.922a6.867 6.867 0 0 1 5.625 2.921"/></symbol></svg>