<svg width="421" height="420" fill="none" xmlns="http://www.w3.org/2000/svg"><circle cx="210.5" cy="210.161" r="209.581" fill="#fff"/><mask id="a" style="mask-type:alpha" maskUnits="userSpaceOnUse" x="16" y="18" width="385" height="384"><path d="M16.883 210.161c0 105.827 85.79 191.617 191.617 191.617 105.827 0 191.617-85.79 191.617-191.617 0-105.827-85.79-191.617-191.617-191.617-105.827 0-191.617 85.79-191.617 191.617z" fill="#D9D9D9"/></mask><g mask="url(#a)"><path d="M208.716 210.161V31.139A179.021 179.021 0 0083.011 82.696l125.705 127.465z" fill="#EB2D2F" stroke="#EB2D2F"/><path d="M208.716 210.161L83.011 82.696a179.022 179.022 0 00-53.3 124.976l179.005 2.489z" fill="#9B5294"/><path d="M208.716 210.161l-179.005-2.489A179.022 179.022 0 0072.83 326.71l135.887-116.549z" fill="#5A81A8"/><path d="M208.716 210.161L72.829 326.71a179.025 179.025 0 00101.267 59.094l34.62-175.643z" fill="#DB9551"/><path d="M208.716 210.161l-34.62 175.643a179.03 179.03 0 00107.132-11.963l-72.512-163.68z" fill="#AFD756"/><path d="M208.716 210.161l72.512 163.68a179.025 179.025 0 0080.84-71.311l-153.352-92.369z" fill="#33C1A0"/><path d="M208.716 210.161l153.352 92.369a179.018 179.018 0 0025.653-94.858l-179.005 2.489z" fill="#B977AC"/><path d="M208.716 210.161l179.005-2.489a179.024 179.024 0 00-28.28-94.107l-150.725 96.596z" fill="#CF9BBD"/><path d="M208.716 210.161l150.725-96.596A179.015 179.015 0 00285.75 48.56l-77.034 161.601z" fill="#E6BFCE"/><path d="M208.716 210.161l77.033-161.6a179.02 179.02 0 00-77.033-17.422V210.16z" fill="#FF9FC4"/><circle cx="210.5" cy="210.161" r="142.765" fill="#D9D9D9"/><circle cx="208.5" cy="210.161" r="101.092" fill="#D9D9D9"/><circle cx="210.5" cy="210.161" r="63.296" fill="#D9D9D9"/></g></svg>